<svg version="1" xmlns="http://www.w3.org/2000/svg" width="346.667" height="346.667" viewBox="0 0 260.000000 260.000000"><path d="M73.2 46.5l.3 21.8L86 75.6c6.9 4 12.8 7.3 13.3 7.4.4 0 .7-2.7.7-6s.2-6 .4-6c.3 0 27.7 15.7 61.1 35 33.3 19.3 61 35 61.5 35 1.5 0 1.2-2.9-1.8-18.9l-2.7-14.4-71-41c-39-22.5-71.8-41.2-72.8-41.4-1.6-.5-1.7.8-1.5 21.2zM48.1 36.1L36 46.2v83.4c0 65.9.3 83.4 1.2 83.4.7 0 9.3-4.6 19-10.2L74 192.6v-15.3c0-8.4-.3-15.3-.7-15.3-.5 0-2.6 1.1-4.8 2.5-2.2 1.3-4.3 2.5-4.7 2.5-.5 0-.8-31.7-.8-70.5 0-59.9-.2-70.5-1.4-70.5-.8 0-6.9 4.5-13.5 10.1zM97 131.1v23.1l3.8-2.2c2-1.2 10.8-6.3 19.5-11.3 8.6-5 15.7-9.3 15.7-9.6 0-.3-8.8-5.6-19.5-11.8L97 108.1v23zM167.6 136.7c-14.3 8.5-14.1 7.9-5.5 12.6l3.4 1.9-2.5 1.4C138.4 166.1 43.5 222 43.5 222.9c0 1.7 28.3 12.3 31 11.6 3.1-.8 142.8-81.9 143.2-83.1.3-.9-35.4-22.6-36.8-22.3-.2 0-6.2 3.5-13.3 7.6z"/></svg>